<?xml version="1.0" standalone="no"?>
<!DOCTYPE svg PUBLIC "-//W3C//DTD SVG 20010904//EN"
 "http://www.w3.org/TR/2001/REC-SVG-20010904/DTD/svg10.dtd">
<svg version="1.0" xmlns="http://www.w3.org/2000/svg"
 width="602.000000pt" height="602.000000pt" viewBox="0 0 602.000000 602.000000"
 preserveAspectRatio="xMidYMid meet">

<g transform="translate(0.000000,602.000000) scale(0.100000,-0.100000)"
fill="#000000" stroke="none">
<path d="M2825 5468 c-87 -16 -348 -99 -392 -124 -23 -13 -57 -24 -77 -24 -25
0 -36 -5 -41 -19 -3 -10 -37 -42 -75 -70 -38 -29 -93 -72 -122 -97 -29 -25
-68 -52 -87 -60 -19 -8 -42 -24 -50 -36 -26 -36 -59 -96 -67 -120 -4 -13 -15
-33 -24 -45 -10 -13 -25 -58 -34 -100 -9 -43 -23 -100 -31 -128 -8 -27 -17
-84 -20 -125 -4 -41 -13 -106 -22 -145 -20 -93 -20 -93 -22 -300 l-2 -180 -23
28 c-19 23 -28 27 -52 22 -90 -20 -106 -41 -129 -175 -19 -106 -25 -435 -11
-530 8 -51 44 -118 86 -161 23 -24 74 -41 102 -34 24 6 26 4 32 -45 4 -29 11
-59 16 -68 4 -10 15 -57 24 -107 9 -49 21 -94 26 -99 6 -6 10 -22 10 -37 0
-14 7 -45 15 -68 8 -22 15 -79 17 -126 l3 -85 -43 -39 c-49 -45 -74 -97 -106
-220 -31 -118 -51 -143 -140 -175 -39 -14 -93 -28 -121 -31 -97 -13 -179 -47
-330 -137 -55 -33 -107 -64 -115 -69 -188 -111 -540 -293 -658 -338 -29 -12
-63 -27 -75 -35 -12 -8 -49 -24 -82 -36 -90 -33 -115 -43 -159 -66 l-41 -21
-3 -621 -2 -622 1109 0 c610 0 1123 3 1140 6 29 6 30 8 14 20 -17 12 -17 14 2
28 11 9 14 16 8 16 -24 0 -13 20 10 20 20 0 24 -5 25 -30 0 -16 -4 -33 -10
-36 -23 -15 22 -24 120 -24 96 0 102 1 102 21 0 49 38 88 88 89 45 0 96 -49
89 -85 l-4 -25 469 0 c495 0 498 0 498 44 0 11 9 16 29 16 33 0 49 -16 32 -33
-22 -22 -10 -29 51 -25 42 2 63 8 66 17 3 10 0 12 -11 8 -16 -6 -28 11 -23 34
11 54 45 87 98 95 21 4 38 10 38 13 0 4 28 21 63 39 34 18 79 49 101 69 46 44
106 135 106 161 0 11 7 39 16 63 20 56 32 144 40 294 3 66 9 123 13 127 3 4
16 5 29 1 18 -4 20 -8 10 -20 -16 -20 -19 -280 -2 -311 10 -21 12 -18 12 24 1
52 20 111 38 118 7 3 10 -2 7 -13 -2 -10 3 -23 11 -30 9 -8 16 -21 16 -30 0
-9 6 -23 12 -29 11 -11 31 -75 41 -132 13 -68 17 -100 28 -207 7 -68 16 -123
19 -123 4 0 12 -38 19 -85 l13 -85 68 0 69 0 -3 28 c-2 15 -5 27 -6 27 -3 0
-10 75 -10 103 0 13 -6 35 -14 50 -8 15 -16 43 -19 63 -2 19 -11 51 -20 70 -9
19 -21 54 -27 78 -6 24 -15 51 -20 60 -5 9 -20 52 -34 96 -14 44 -34 107 -45
140 -30 93 -51 170 -51 188 0 10 8 17 20 17 11 0 20 -6 20 -13 0 -9 10 -12 30
-9 18 3 30 0 30 -7 0 -6 -9 -11 -20 -11 -11 0 -20 -1 -20 -3 0 -7 73 -143 81
-152 5 -5 9 -16 9 -25 0 -9 11 -27 25 -40 14 -13 25 -29 25 -35 0 -6 5 -16 12
-23 6 -6 12 -23 14 -38 3 -28 30 -64 48 -64 7 0 12 -17 12 -40 1 -46 9 -59 26
-42 10 10 10 17 0 32 -6 11 -12 29 -12 40 0 11 -4 20 -10 20 -5 0 -10 11 -10
24 0 14 -9 31 -20 39 -11 8 -17 17 -13 20 3 4 2 7 -4 7 -6 0 -9 9 -6 20 3 11
-4 37 -15 59 -15 28 -17 42 -9 50 17 17 0 26 -19 10 -16 -13 -17 -11 -11 19 5
23 3 32 -7 32 -7 0 -21 16 -32 35 -10 19 -25 35 -32 35 -7 0 -10 4 -7 10 10
16 55 12 55 -5 0 -8 5 -15 10 -15 6 0 21 -11 33 -25 12 -13 37 -35 56 -47 19
-13 35 -30 36 -39 3 -15 24 -87 85 -289 16 -52 36 -122 46 -155 9 -33 20 -64
25 -70 12 -12 12 -52 0 -59 -5 -3 -16 16 -25 42 -10 26 -21 54 -26 62 -5 8
-21 39 -35 68 -28 56 -31 58 -57 38 -22 -16 -23 -42 -3 -50 10 -3 15 -19 15
-43 1 -21 8 -69 16 -108 8 -38 17 -83 20 -100 13 -79 9 -75 74 -75 33 0 60 2
60 5 0 3 -7 22 -15 42 -8 19 -15 54 -14 77 l1 41 8 -35 c5 -19 16 -49 24 -65
9 -17 16 -38 16 -47 0 -16 14 -18 146 -18 l147 0 -8 33 c-4 17 -10 50 -14 72
-4 22 -12 49 -18 60 -21 39 -75 309 -75 373 1 17 -4 32 -10 32 -6 0 -8 13 -6
30 3 22 1 29 -8 26 -8 -3 -11 0 -8 9 3 7 -2 15 -13 18 -16 4 -16 5 2 6 33 2
75 -45 75 -83 0 -60 11 -95 27 -89 12 5 13 2 5 -13 -11 -22 -13 -112 -2 -119
4 -3 5 -16 2 -30 -2 -14 3 -36 12 -50 9 -13 16 -38 16 -55 0 -17 7 -47 15 -67
8 -19 15 -44 15 -54 0 -10 7 -37 16 -59 l16 -40 80 0 80 0 -7 37 c-3 20 -8 78
-10 129 -2 51 -6 97 -9 103 -4 5 -1 13 5 16 6 5 8 22 4 46 -4 21 -3 39 2 39
11 -1 53 -68 53 -86 0 -8 3 -14 8 -14 4 0 20 -18 36 -40 16 -22 38 -42 47 -45
11 -4 16 -12 12 -21 -8 -22 -29 -17 -51 14 l-20 27 3 -63 c3 -34 9 -80 15
-102 l11 -40 169 0 c99 0 170 4 170 9 0 5 -18 22 -40 38 -28 20 -38 33 -34 46
4 13 0 17 -19 17 -14 0 -27 7 -31 15 -3 8 -15 15 -26 15 -11 0 -20 5 -20 10 0
6 -5 10 -11 10 -11 0 -55 42 -61 58 -2 4 -11 6 -20 5 -10 -2 -18 2 -18 7 0 6
-7 10 -15 10 -28 0 -15 28 16 35 27 6 29 9 17 23 -24 31 -38 61 -38 84 0 29
-9 42 -38 57 -29 15 -45 5 -39 -25 2 -14 1 -27 -4 -30 -11 -7 -69 24 -69 37 0
5 -11 14 -25 19 -14 5 -25 16 -25 24 0 9 -7 12 -19 9 -10 -3 -22 0 -25 6 -4 6
-14 11 -22 11 -27 0 -103 42 -109 60 -7 23 4 50 21 50 8 0 14 7 14 15 0 30
-25 95 -37 95 -6 0 -13 6 -16 13 -2 6 -8 9 -12 4 -5 -4 2 -27 14 -52 28 -57
22 -83 -9 -32 -12 20 -28 37 -36 37 -8 0 -14 5 -14 10 0 6 -9 10 -19 10 -15 0
-18 5 -13 22 4 17 2 20 -15 16 -18 -5 -20 -1 -20 28 1 19 4 34 8 34 4 0 2 11
-4 25 -7 14 -15 25 -19 25 -5 0 -8 7 -8 15 0 8 -4 15 -10 15 -5 0 -22 19 -39
43 -16 23 -45 59 -65 80 -19 21 -38 47 -41 58 -4 10 -10 19 -15 19 -5 0 -19
19 -31 42 -12 24 -35 55 -51 70 -16 16 -27 32 -24 37 3 4 -6 19 -19 31 -14 13
-25 28 -25 34 0 10 -21 44 -82 133 -16 24 -26 47 -23 53 3 5 1 10 -5 10 -7 0
-10 7 -6 15 3 8 1 15 -4 15 -6 0 -10 -5 -10 -12 0 -6 -12 0 -27 14 -36 33 -71
51 -84 43 -5 -4 -21 5 -34 19 -24 26 -24 26 -38 5 -13 -17 -15 -18 -21 -4 -10
28 -7 47 7 42 7 -3 19 4 25 14 11 18 10 19 -14 13 -19 -5 -25 -3 -20 4 7 11
-88 62 -116 62 -8 0 -23 7 -34 15 -10 8 -27 15 -36 15 -10 0 -41 11 -70 24
-29 13 -72 31 -96 41 -48 20 -97 75 -108 121 -4 16 -15 46 -24 66 -15 33 -15
45 -4 100 8 35 14 78 14 95 0 19 19 72 44 120 86 170 156 354 156 409 0 13 4
25 9 28 5 3 12 22 15 41 6 31 11 35 36 35 17 0 30 4 30 9 0 5 20 29 45 54 25
26 45 56 45 67 0 12 6 34 14 48 24 46 46 132 46 181 0 25 10 119 22 209 19
138 20 172 10 219 -16 76 -36 97 -85 89 -29 -5 -39 -3 -44 10 -3 9 -2 24 4 33
21 33 62 389 47 412 -3 5 -6 66 -8 136 -3 123 -20 237 -53 353 -16 60 -94 214
-143 285 -43 62 -278 275 -336 305 -27 13 -75 42 -108 63 -85 57 -211 113
-286 126 -36 7 -83 18 -105 26 -49 17 -349 26 -420 13z m653 -902 c8 -17 17
-23 30 -19 18 4 19 0 14 -49 -2 -29 -9 -58 -14 -64 -12 -16 -62 -24 -69 -12
-9 14 -75 27 -136 28 -28 0 -55 5 -58 10 -3 6 -22 10 -41 10 -39 0 -72 25 -79
59 -2 12 -1 20 3 17 4 -2 23 4 42 14 34 18 35 17 63 -2 l29 -21 28 22 c33 24
50 27 50 9 0 -7 5 -5 11 5 7 13 23 17 63 17 46 0 54 -3 64 -24z m107 -36 c-6
-9 -9 -9 -16 1 -10 17 0 34 13 21 6 -6 7 -16 3 -22z m-3 -62 c-9 -9 -12 -7
-12 12 0 19 3 21 12 12 9 -9 9 -15 0 -24z m-563 -313 c10 3 22 1 26 -4 6 -11
-12 -52 -28 -63 -7 -4 -6 -12 4 -24 13 -16 12 -17 -16 -11 -16 3 -39 9 -50 12
-14 5 -16 4 -7 -3 11 -7 7 -11 -15 -15 -34 -6 -40 -2 -23 18 8 10 9 15 1 15
-21 0 -11 19 18 36 16 10 32 26 35 37 4 17 8 18 20 8 8 -7 24 -10 35 -6z m188
-27 c-3 -8 -6 -5 -6 6 -1 11 2 17 5 13 3 -3 4 -12 1 -19z m230 -17 c12 -14 19
-28 14 -31 -4 -3 -7 -22 -7 -42 2 -33 -1 -38 -21 -38 -13 0 -23 6 -23 14 0 17
-24 28 -45 20 -8 -4 -15 -1 -15 5 0 6 -6 11 -13 11 -8 0 -13 -10 -13 -22 1
-32 -39 -37 -65 -9 -11 12 -28 21 -39 21 -10 0 -26 10 -35 23 -16 22 -16 22
-31 2 -18 -24 -14 -37 14 -50 32 -14 27 -20 -15 -20 -34 0 -38 3 -44 34 -4 19
-5 41 -2 48 8 19 52 36 67 25 20 -16 58 -21 82 -10 13 6 21 15 18 19 -8 14 37
31 67 25 15 -3 31 -1 34 3 9 15 49 -1 72 -28z m-347 -21 c0 -5 -4 -10 -10 -10
-5 0 -10 5 -10 10 0 6 5 10 10 10 6 0 10 -4 10 -10z m-5 -80 c3 -5 -1 -10 -10
-10 -9 0 -13 5 -10 10 3 6 8 10 10 10 2 0 7 -4 10 -10z m-427 -442 c3 -21 -2
-26 -29 -32 -40 -8 -44 -4 -27 26 25 45 51 48 56 6z m458 -45 c-10 -72 -26
-78 -26 -10 0 46 3 57 16 57 14 0 16 -8 10 -47z m347 -8 c8 -18 -11 -31 -25
-17 -11 11 -3 32 12 32 4 0 10 -7 13 -15z m230 -15 c-21 -19 -97 -70 -105 -70
-4 0 -8 5 -8 10 0 6 8 10 18 10 9 0 29 16 45 35 18 22 33 32 43 28 8 -3 12 -9
7 -13z m-973 0 c8 -5 11 -12 7 -16 -3 -4 -12 -2 -19 4 -7 6 -31 12 -53 15
l-40 4 45 1 c25 1 52 -2 60 -8z m623 -82 c8 -17 13 -37 10 -45 -4 -9 4 -13 26
-13 23 0 29 4 25 15 -8 19 16 20 42 0 10 -8 25 -15 32 -15 7 0 21 -8 30 -17
16 -15 15 -16 -8 -10 -53 12 -100 19 -100 14 0 -13 62 -97 71 -97 5 0 14 -11
19 -25 7 -17 17 -25 34 -25 14 0 28 -5 32 -11 3 -6 14 -9 24 -6 10 2 24 -3 33
-13 8 -10 20 -19 27 -22 10 -3 10 -9 1 -25 -9 -18 -8 -23 9 -28 11 -4 18 -11
15 -16 -4 -5 6 -9 20 -9 34 0 31 -30 -5 -40 -103 -29 -131 -32 -149 -16 -10 9
-23 16 -30 16 -6 0 -16 11 -21 25 -5 14 -16 25 -25 25 -8 0 -15 8 -15 17 0 9
-14 41 -30 70 -17 30 -30 59 -29 66 1 7 -7 32 -19 57 -12 25 -22 53 -22 62 0
9 -4 20 -10 23 -5 3 -10 13 -10 21 0 8 5 12 10 9 6 -3 10 -1 10 4 0 6 -11 11
-25 11 -16 0 -25 6 -25 15 0 28 37 16 53 -17z m-208 -72 c4 -18 2 -49 -3 -69
-6 -20 -7 -62 -3 -96 6 -53 12 -64 46 -95 21 -20 43 -36 48 -36 4 0 7 -10 5
-22 -2 -17 -19 -31 -62 -51 -79 -39 -125 -46 -142 -22 -18 25 -18 69 0 84 34
28 58 168 46 261 -8 61 0 80 36 80 18 0 24 -7 29 -34z m1032 -108 c-3 -8 -6
-5 -6 6 -1 11 2 17 5 13 3 -3 4 -12 1 -19z m-861 -257 c24 -19 25 -20 5 -30
-23 -13 -48 -5 -61 19 -18 34 18 41 56 11z m-216 -440 c0 -17 -63 -22 -79 -6
-14 13 -10 15 32 15 26 0 47 -4 47 -9z m116 -248 c24 -9 16 -22 -28 -43 -47
-23 -133 -29 -151 -11 -6 6 -31 11 -55 11 -24 0 -52 5 -63 10 -22 12 -25 35
-6 44 14 7 282 -3 303 -11z m954 -644 c0 -5 10 -9 23 -7 19 3 22 -1 19 -23 -2
-17 3 -29 12 -32 9 -4 13 -13 10 -22 -5 -11 -10 -13 -19 -5 -6 5 -15 7 -18 3
-4 -3 -7 3 -7 15 0 11 -6 27 -13 34 -18 18 -28 48 -17 48 6 0 10 -5 10 -11z
m190 1 c0 -5 -4 -10 -10 -10 -5 0 -10 5 -10 10 0 6 5 10 10 10 6 0 10 -4 10
-10z m-113 -169 c2 -15 -1 -21 -9 -19 -7 3 -15 15 -16 27 -3 15 1 22 9 19 7
-2 14 -14 16 -27z m153 -35 c0 -7 9 -21 20 -31 11 -10 20 -24 20 -32 0 -26 43
-103 57 -103 16 0 15 35 -1 112 -4 15 -2 29 3 33 10 6 39 -46 44 -80 1 -11 6
-25 9 -31 4 -6 10 -30 14 -52 4 -23 10 -42 14 -42 4 0 8 -12 8 -27 0 -14 7
-32 16 -39 9 -6 26 -38 37 -70 11 -32 28 -72 36 -88 14 -27 14 -31 -1 -41 -8
-7 -13 -15 -9 -18 3 -4 2 -7 -4 -7 -17 0 -23 13 -12 27 14 16 5 17 -22 3 -23
-13 -25 -38 -4 -46 8 -4 15 -12 15 -20 0 -8 7 -14 15 -14 8 0 15 7 15 15 0 17
16 20 25 6 3 -5 -1 -15 -8 -23 -8 -7 -12 -19 -9 -26 3 -11 1 -11 -17 0 -12 7
-21 16 -21 19 0 4 -15 14 -32 23 -18 9 -40 20 -48 25 -56 31 -81 41 -100 41
-13 0 -20 5 -17 13 2 6 0 27 -5 44 -6 22 -5 40 2 53 8 16 8 25 0 35 -6 7 -8
24 -5 38 4 14 2 42 -5 63 -6 22 -14 62 -17 89 -3 28 -12 59 -19 70 -16 23 -19
109 -4 100 6 -3 10 -12 10 -19z m-125 -98 c4 -29 11 -64 16 -76 5 -13 14 -80
20 -148 9 -107 8 -126 -5 -139 -24 -24 -28 -3 -30 141 -1 108 -3 133 -14 129
-11 -4 -12 4 -7 35 4 23 3 46 -3 53 -5 7 -12 27 -15 45 -6 30 -5 32 12 22 13
-7 21 -26 26 -62z m445 -514 c0 -8 -4 -14 -9 -14 -6 0 -9 9 -8 19 1 22 17 18
17 -5z m-2440 -147 c0 -7 6 -19 12 -25 7 -7 13 -27 13 -45 1 -18 4 -38 9 -45
5 -8 -1 -12 -21 -11 -15 0 -22 3 -15 6 20 8 14 23 -9 23 -18 0 -20 2 -8 16 10
13 10 17 -2 25 -12 8 -12 10 1 19 13 9 13 11 0 19 -8 5 -18 7 -22 5 -4 -3 -8
-1 -8 5 0 8 16 16 43 20 4 0 7 -5 7 -12z m34 -168 c-3 -5 -10 -7 -15 -3 -5 3
-7 10 -3 15 3 5 10 7 15 3 5 -3 7 -10 3 -15z m236 -46 c0 -22 -2 -25 -10 -13
-13 20 -13 40 0 40 6 0 10 -12 10 -27z m-232 -13 c0 -23 -4 -30 -18 -30 -10 0
-22 5 -25 10 -3 6 1 10 9 10 9 0 16 5 16 10 0 6 -7 10 -15 10 -8 0 -15 5 -15
10 0 6 11 10 23 10 20 0 24 -5 25 -30z m2961 -24 c9 -11 6 -12 -14 -8 -14 2
-25 8 -25 13 0 14 26 11 39 -5z m-2839 -32 c0 -8 -4 -12 -10 -9 -5 3 -10 10
-10 16 0 5 5 9 10 9 6 0 10 -7 10 -16z m-122 -5 c-2 -6 -7 -10 -11 -10 -4 1
-14 1 -23 1 -8 0 -12 5 -9 10 8 13 48 13 43 -1z m2972 -5 c0 -2 -9 -4 -21 -4
-11 0 -18 4 -14 10 5 8 35 3 35 -6z m92 -36 c-9 -9 -12 -7 -12 12 0 19 3 21
12 12 9 -9 9 -15 0 -24z m138 17 c0 -8 -7 -15 -15 -15 -16 0 -20 12 -8 23 11
12 23 8 23 -8z m-3207 -12 c-7 -2 -19 -2 -25 0 -7 3 -2 5 12 5 14 0 19 -2 13
-5z m3263 -48 c7 -18 -24 -51 -36 -39 -13 13 0 54 16 54 8 0 17 -7 20 -15z
m-3263 -2 c-7 -2 -19 -2 -25 0 -7 3 -2 5 12 5 14 0 19 -2 13 -5z m12 -33 c-3
-5 -15 -10 -25 -10 -10 0 -22 5 -25 10 -4 6 7 10 25 10 18 0 29 -4 25 -10z
m-5 -35 c0 -9 -9 -15 -25 -15 -24 0 -32 10 -18 23 12 13 43 7 43 -8z m-7 -42
c-7 -2 -21 -2 -30 0 -10 3 -4 5 12 5 17 0 24 -2 18 -5z m7 -43 c0 -5 -11 -10
-25 -10 -14 0 -25 5 -25 10 0 6 11 10 25 10 14 0 25 -4 25 -10z m3280 -58 c0
-13 -3 -12 -20 3 -11 10 -17 22 -14 27 8 12 34 -11 34 -30z m-3285 8 c-3 -5
-13 -6 -21 -3 -12 4 -13 8 -3 14 15 9 32 2 24 -11z m3466 -87 c13 -16 12 -17
-3 -4 -17 13 -22 21 -14 21 2 0 10 -8 17 -17z"/>
<path d="M4545 1570 c3 -5 10 -10 16 -10 5 0 9 5 9 10 0 6 -7 10 -16 10 -8 0
-12 -4 -9 -10z"/>
<path d="M4816 1465 c10 -8 26 -14 34 -15 8 0 2 7 -14 15 -36 19 -45 19 -20 0z"/>
<path d="M4700 1392 c0 -20 39 -62 58 -62 7 0 12 -6 12 -14 0 -17 87 -62 138
-71 38 -6 41 -8 37 -36 -3 -21 2 -35 17 -47 24 -20 68 -108 68 -135 0 -23 37
-87 51 -87 5 0 15 -16 24 -36 10 -25 20 -35 32 -32 15 3 18 16 20 88 1 47 6
99 11 115 7 23 5 39 -10 68 -10 20 -15 37 -11 38 5 0 -3 5 -17 11 -14 6 -32
10 -42 9 -9 -1 -19 3 -23 9 -6 10 16 14 67 10 35 -2 68 8 68 22 0 5 -7 8 -15
4 -8 -3 -23 -2 -32 1 -15 6 -15 7 0 12 9 3 -24 7 -73 9 -49 1 -101 7 -116 12
-14 6 -38 10 -54 10 -16 0 -30 7 -34 16 -5 13 -9 14 -20 5 -16 -14 -31 -4 -99
62 -44 41 -57 46 -57 19z"/>
<path d="M4920 1310 c0 -5 5 -10 11 -10 5 0 7 5 4 10 -3 6 -8 10 -11 10 -2 0
-4 -4 -4 -10z"/>
<path d="M4830 1229 c0 -5 5 -7 10 -4 6 3 10 8 10 11 0 2 -4 4 -10 4 -5 0 -10
-5 -10 -11z"/>
<path d="M5221 1221 c-9 -6 -4 -10 18 -13 24 -4 28 -2 20 9 -13 15 -19 16 -38
4z"/>
<path d="M5340 1180 c-13 -8 -13 -10 2 -10 9 0 20 5 23 10 8 13 -5 13 -25 0z"/>
<path d="M5400 1153 c8 -3 23 -12 32 -20 9 -8 23 -13 30 -11 15 5 -43 38 -64
37 -9 0 -8 -2 2 -6z"/>
<path d="M4890 1123 c1 -16 30 -46 37 -38 5 4 2 10 -4 12 -7 3 -13 11 -13 19
0 8 -4 14 -10 14 -5 0 -10 -3 -10 -7z"/>
<path d="M5490 1100 c8 -5 20 -10 25 -10 6 0 3 5 -5 10 -8 5 -19 10 -25 10 -5
0 -3 -5 5 -10z"/>
<path d="M5234 1037 c-6 -16 -1 -66 19 -207 22 -145 31 -232 28 -250 -2 -8
-10 -20 -19 -26 -10 -7 -15 -14 -12 -16 43 -35 69 -46 110 -43 51 2 72 -3 64
-16 -3 -5 2 -6 10 -3 18 7 23 98 7 109 -5 3 -7 21 -4 39 6 38 -11 98 -38 138
-11 14 -22 40 -25 57 -4 17 -11 34 -15 37 -5 3 -9 14 -9 26 0 23 -87 168 -101
168 -5 0 -12 -6 -15 -13z"/>
<path d="M5640 1010 c20 -13 33 -13 25 0 -3 6 -14 10 -23 10 -15 0 -15 -2 -2
-10z"/>
<path d="M5015 940 c-4 -6 -3 -16 3 -22 6 -6 12 -6 17 2 4 6 3 16 -3 22 -6 6
-12 6 -17 -2z"/>
<path d="M4681 744 c0 -11 3 -14 6 -6 3 7 2 16 -1 19 -3 4 -6 -2 -5 -13z"/>
<path d="M5090 720 c0 -5 5 -10 10 -10 6 0 10 5 10 10 0 6 -4 10 -10 10 -5 0
-10 -4 -10 -10z"/>
<path d="M5579 708 c-3 -32 4 -64 16 -78 23 -26 45 -129 50 -239 3 -57 11
-116 19 -131 9 -19 10 -33 4 -45 -9 -15 -7 -15 11 -6 26 14 86 1 86 -19 0 -8
8 -16 18 -18 24 -5 22 34 -3 48 -14 8 -20 21 -20 47 0 35 -1 35 -23 20 -22
-14 -23 -13 -25 9 -1 13 3 24 8 24 27 0 4 156 -37 260 -6 14 -18 51 -28 83
-17 52 -21 57 -47 57 -15 0 -28 -6 -29 -12z"/>
<path d="M5208 585 c-8 -8 3 -55 14 -55 5 0 7 11 5 25 -3 26 -11 38 -19 30z"/>
<path d="M4275 439 c-4 -6 -5 -12 -2 -15 2 -3 7 2 10 11 7 17 1 20 -8 4z"/>
<path d="M4241 356 c-6 -14 -15 -26 -21 -26 -5 0 -10 -9 -10 -20 0 -11 4 -20
9 -20 11 0 32 25 30 36 -1 5 1 17 6 27 4 10 5 21 2 24 -4 3 -11 -6 -16 -21z"/>
<path d="M4320 285 c-12 -14 -12 -18 1 -25 10 -7 15 -5 17 5 6 28 -3 38 -18
20z"/>
<path d="M4161 254 c-13 -13 -27 -24 -32 -24 -17 0 -9 -19 12 -25 20 -7 35 5
59 47 16 27 -13 29 -39 2z"/>
<path d="M4323 184 c-11 -45 -18 -122 -14 -166 1 -12 9 -18 27 -18 l25 0 -6
78 c-4 42 -10 95 -14 116 l-6 40 -12 -50z"/>
<path d="M4065 170 c-10 -11 -26 -20 -35 -20 -9 0 -20 -4 -26 -10 -5 -5 -23
-11 -39 -13 -46 -5 -115 -34 -115 -48 0 -5 9 -13 20 -19 16 -9 33 -7 76 9 30
12 64 21 74 21 11 0 20 5 20 10 0 6 10 10 23 10 17 0 19 2 8 9 -12 8 -9 12 15
23 36 16 47 30 31 40 -19 12 -33 9 -52 -12z"/>
<path d="M2610 45 c0 -18 -17 -20 -22 -3 -7 20 -26 -1 -21 -22 4 -16 14 -20
44 -20 44 0 43 -1 29 34 -10 28 -30 35 -30 11z"/>
<path d="M4025 52 c-5 -4 -10 -17 -11 -29 0 -20 4 -23 37 -23 42 0 53 10 44
40 -6 20 -49 28 -70 12z"/>
<path d="M5933 24 c-15 -16 -16 -24 -4 -24 8 0 24 30 19 35 -2 2 -9 -3 -15
-11z"/>
<path d="M3880 10 c0 -5 7 -10 15 -10 8 0 15 5 15 10 0 6 -7 10 -15 10 -8 0
-15 -4 -15 -10z"/>
<path d="M4128 3 c12 -2 30 -2 40 0 9 3 -1 5 -23 4 -22 0 -30 -2 -17 -4z"/>
</g>
</svg>
